<?xml version="1.0" encoding="iso-8859-1"?>
<!-- Generator: Adobe Illustrator 18.0.0, SVG Export Plug-In . SVG Version: 6.00 Build 0)  -->
<!DOCTYPE svg PUBLIC "-//W3C//DTD SVG 1.1//EN" "http://www.w3.org/Graphics/SVG/1.1/DTD/svg11.dtd">
<svg version="1.1" id="Capa_1" xmlns="http://www.w3.org/2000/svg" xmlns:xlink="http://www.w3.org/1999/xlink" x="0px" y="0px"
	 viewBox="0 0 53.982 53.982" style="enable-background:new 0 0 53.982 53.982;" xml:space="preserve">
<g>
	<path style="fill:#FF3333;" d="M36.816,5.324L36.816,5.324c-7.098-7.098-18.607-7.098-25.706,0h0
		C4.715,11.72,3.995,23.763,9.422,31l14.541,21l14.541-21C43.932,23.763,43.213,11.72,36.816,5.324z M24.14,24c-3.314,0-6-2.686-6-6
		s2.686-6,6-6s6,2.686,6,6S27.454,24,24.14,24z"/>
	<g>
		<circle style="fill:#D0E8F9;" cx="33.972" cy="38.796" r="9.796"/>
		<path style="fill:#EAF6FD;" d="M37.525,29.674L24.851,42.348c0.706,1.81,1.93,3.357,3.495,4.459L41.984,33.17
			C40.882,31.604,39.335,30.38,37.525,29.674z"/>
		<path style="fill:#8697CB;" d="M47.918,52.291l-5.97-6.244c1.746-1.919,2.82-4.458,2.82-7.251C44.768,32.843,39.925,28,33.972,28
			s-10.796,4.843-10.796,10.796s4.843,10.796,10.796,10.796c2.442,0,4.689-0.824,6.499-2.196l6.001,6.276
			c0.196,0.206,0.459,0.309,0.723,0.309c0.249,0,0.497-0.092,0.691-0.277C48.285,53.323,48.299,52.69,47.918,52.291z M25.176,38.796
			c0-4.85,3.946-8.796,8.796-8.796s8.796,3.946,8.796,8.796s-3.946,8.796-8.796,8.796S25.176,43.646,25.176,38.796z"/>
	</g>
</g>
</svg>
